<svg width="33" height="32" viewBox="0 0 33 32" fill="none" xmlns="http://www.w3.org/2000/svg">
<path d="M26.0328 0.0019989H6.96319C3.39163 0.0019989 0.5 2.89362 0.5 6.46519V25.5388C0.5 29.1064 3.39163 31.998 6.96319 31.998H26.0368C29.6044 31.998 32.5 29.1064 32.5 25.5348V6.46519C32.496 2.89362 29.6044 0.0019989 26.0328 0.0019989Z" fill="url(#paint0_linear_1_717)"/>
<path d="M16.3619 7.35306L17.0099 6.23318C17.4098 5.53325 18.3017 5.29731 19.0016 5.69725C19.7016 6.09718 19.9375 6.98906 19.5376 7.689L13.2943 18.4957H17.8097C19.2736 18.4957 20.0934 20.2155 19.4576 21.4073H6.21924C5.41137 21.4073 4.76343 20.7594 4.76343 19.9515C4.76343 19.1436 5.41137 18.4957 6.21924 18.4957H9.9308L14.6822 10.2607L13.1984 7.685C12.7985 6.98506 13.0344 6.10118 13.7344 5.69325C14.4343 5.29331 15.3182 5.52925 15.7261 6.22918L16.3619 7.35306Z" fill="white"/>
<path d="M10.7466 22.9071L9.34682 25.3348C8.94688 26.0347 8.05501 26.2707 7.35507 25.8707C6.65513 25.4708 6.41919 24.5789 6.81913 23.879L7.85901 22.0792C9.03482 21.7153 9.99069 21.9952 10.7466 22.9071Z" fill="white"/>
<path d="M22.8011 18.5037H26.5886C27.3965 18.5037 28.0444 19.1516 28.0444 19.9595C28.0444 20.7674 27.3965 21.4153 26.5886 21.4153H24.4849L25.9047 23.879C26.3046 24.5789 26.0687 25.4628 25.3688 25.8708C24.6688 26.2707 23.7849 26.0348 23.377 25.3348C20.9853 21.1873 19.1895 18.0838 17.9977 16.016C16.7778 13.9123 17.6498 11.8005 18.5096 11.0846C19.4656 12.7244 20.8934 15.2001 22.8011 18.5037Z" fill="white"/>
<defs>
<linearGradient id="paint0_linear_1_717" x1="16.5" y1="0.0019989" x2="16.5" y2="31.998" gradientUnits="userSpaceOnUse">
<stop stop-color="#00BFFC"/>
<stop offset="1" stop-color="#0073F6"/>
</linearGradient>
</defs>
</svg>
