<svg width="40" height="41" viewBox="0 0 40 41" fill="none" xmlns="http://www.w3.org/2000/svg">
<path d="M39 33.5625L39 29.0429C39 28.2598 38.3652 27.625 37.5821 27.625H35.6679C34.8848 27.625 34.25 28.2598 34.25 29.0429L34.25 33.5625C34.25 34.2183 33.7183 34.75 33.0625 34.75L6.9375 34.75C6.28166 34.75 5.75 34.2183 5.75 33.5625L5.75 29.0429C5.75 28.2598 5.11517 27.625 4.33207 27.625H2.41794C1.63483 27.625 1 28.2598 1 29.0429L1 33.5625C0.999999 36.8417 3.65831 39.5 6.9375 39.5L33.0625 39.5C36.3417 39.5 39 36.8417 39 33.5625Z" fill="url(#paint0_linear_3_1115)"/>
<path d="M11.8722 18.142L10.5169 19.4974C9.96313 20.0511 9.96313 20.9489 10.5169 21.5026L18.3195 29.3053C19.2465 30.2333 20.7503 30.2342 21.6783 29.3072C21.6789 29.3066 21.6795 29.3059 21.6802 29.3053L29.4829 21.5026C30.0366 20.9489 30.0366 20.0511 29.4829 19.4974L28.1275 18.142C27.5738 17.5883 26.676 17.5883 26.1222 18.142L22.3749 21.8894L22.3749 2.91794C22.3749 2.13483 21.74 1.5 20.9569 1.5L19.0428 1.5C18.2597 1.5 17.6249 2.13483 17.6249 2.91793L17.6249 21.8894L13.8775 18.142C13.3238 17.5883 12.426 17.5883 11.8722 18.142Z" fill="url(#paint1_linear_3_1115)"/>
<defs>
<linearGradient id="paint0_linear_3_1115" x1="4.64595" y1="33.5625" x2="36.0473" y2="33.5655" gradientUnits="userSpaceOnUse">
<stop offset="0.0001" stop-color="#54CF68"/>
<stop offset="1" stop-color="#00827A"/>
</linearGradient>
<linearGradient id="paint1_linear_3_1115" x1="12.001" y1="15.7509" x2="28.3599" y2="15.7513" gradientUnits="userSpaceOnUse">
<stop offset="0.0001" stop-color="#54CF68"/>
<stop offset="1" stop-color="#00827A"/>
</linearGradient>
</defs>
</svg>
